<svg id="图层_1" data-name="图层 1" xmlns="http://www.w3.org/2000/svg" viewBox="0 0 362.62 96.95"><defs><style>.cls-1{fill:#231815;}.cls-2{fill:#c30d23;}</style></defs><title>名字logo</title><polygon class="cls-1" points="33.21 51.17 57.97 51.17 57.71 50.79 88.45 5.02 65.36 5.02 45.9 35.62 27.11 5.02 2.69 5.02 33.55 50.65 33.21 51.17"/><polygon class="cls-1" points="48.94 68.76 66.03 95.83 91.13 95.83 73.06 68.76 48.94 68.76"/><polygon class="cls-1" points="18.1 68.76 0 95.83 23.76 95.83 41.18 68.76 18.1 68.76"/><rect class="cls-2" x="98.11" width="19.06" height="15.7"/><rect class="cls-1" x="98.11" y="28.1" width="19.06" height="67.73"/><path class="cls-1" d="M266.54,164.13c5.61,0,10.33,1,10.33,7.86a5.4,5.4,0,0,1-.25,1.62h16.2V170c0-13.92-13.93-16.51-25.49-16.51-13,0-26.4,4.5-27.29,19.43H256C256.54,166.6,260.47,164.13,266.54,164.13Z" transform="translate(-107.52 -118.22)"/><path class="cls-1" d="M292.82,190.45H276.87v.19c0,3.48-.45,13.36-12.91,13.36-5.17,0-9.77-1.46-9.77-7.41a7,7,0,0,1,3-6.14H239.39a18.9,18.9,0,0,0-1.15,6.81c0,11.91,8.76,17.41,19.76,17.41,7.08,0,14.49-1.91,19.55-7.19a23.74,23.74,0,0,0,1.12,5.62h16.17c-1.46-2.36-2-7.64-2-12.92Z" transform="translate(-107.52 -118.22)"/><path class="cls-1" d="M323.53,173.49c2-4.4,5.74-7.51,12-7.51s10,3.11,12.05,7.51h16.38C360.1,161.4,349.8,154,335.49,154S311,161.4,307.16,173.49Z" transform="translate(-107.52 -118.22)"/><path class="cls-1" d="M349.16,190.33c-1.23,7-5.06,12.82-13.67,12.82s-12.34-5.83-13.56-12.82h-16c2.21,15.17,13.32,24.84,29.56,24.84s27.45-9.67,29.66-24.84Z" transform="translate(-107.52 -118.22)"/><polygon class="cls-1" points="293.57 55.27 317.24 7.33 298.26 7.33 280.27 44.64 262.16 7.33 242.97 7.33 266.67 55.27 293.57 55.27"/><rect class="cls-1" x="271.4" y="72.11" width="17.4" height="22.92"/><rect class="cls-2" x="347.67" y="35.74" width="14.95" height="18.15"/><rect class="cls-2" x="311.55" y="35.74" width="14.95" height="18.15"/><path class="cls-2" d="M454.83,189.86C453.76,197,450.24,200,443.61,200c-6.07,0-8.85-3.37-9.45-10.18H419.08c.09,13.22,4.17,22,19.89,22a19.41,19.41,0,0,0,16.64-9.05h.31v7.58h14.22v-20.5Z" transform="translate(-107.52 -118.22)"/></svg>